<?xml version="1.0"?>
<svg xmlns="http://www.w3.org/2000/svg" height="512px" viewBox="0 0 505.87243 505" width="512px" class=""><g><path d="m503.011719 491.234375c-4.398438-3.972656-8.816407-8.097656-13.078125-12.355469-9.453125-9.425781-18.304688-19.4375-26.511719-29.964844-10.675781-12.96875-18.664063-27.929687-23.5-44.015624-1.960937-7.308594-3.511719-14.441407-5.074219-21.582032.546875 2.507813 1.109375 5.015625 1.671875 7.523438.871094-9.902344 2.207031-19.785156 3.523438-29.359375 1.605469-11.660157 3.253906-23.714844 4.019531-35.507813 2.234375-31.800781-9.441406-63.003906-31.996094-85.53125-11.796875-11.113281-26.4375-18.746094-42.304687-22.058594-17.820313-2.8125-34.746094-9.703124-49.464844-20.132812l122.933594-122.898438 14.023437 14.03125 25.207032-65.535156-65.535157 25.210938 14.03125 14.023437-122.929687 122.929688c-10.433594-14.710938-17.324219-31.640625-20.125-49.460938-3.308594-15.863281-10.933594-30.5-22.035156-42.308593-22.503907-22.535157-53.675782-34.207032-85.449219-31.992188-11.777344.753906-23.8125 2.410156-35.449219 4.007812-9.597656 1.320313-19.5 2.601563-29.417969 3.53125-4.652343-1.039062-9.3125-2.125-14.058593-3.402343-16.101563-4.824219-31.078126-12.8125-44.050782-23.5-10.535156-8.199219-20.542968-17.058594-29.964844-26.519531-4.269531-4.261719-8.382812-8.675782-12.355468-13.066407-2.507813-2.777343-6.503906-3.632812-9.925782-2.132812-3.425781 1.5-5.5 5.023437-5.1601558 8.742187l38.1249998 411.292969-22.960937 22.960937h38.257812c4.792969 0 8.679688 3.886719 8.679688 8.679688v38.269531l23.691406-23.691406 410.554687 38.851563h.816407c3.585937 0 6.804687-2.210938 8.09375-5.5625 1.289062-3.351563.382812-7.148438-2.28125-9.554688zm-448.886719-85.980469-34.519531-372.285156c8.636719 8.367188 17.722656 16.257812 27.214843 23.640625 14.769532 12.105469 31.816407 21.128906 50.132813 26.535156 7.574219 2.039063 14.984375 3.652344 22.386719 5.269531 8.296875 1.8125 16.878906 3.679688 25.507812 6.167969 28.039063 9.507813 53.351563 25.675781 73.761719 47.121094 11.277344 11.488281 20.859375 24.527344 28.453125 38.722656 7.058594 14.464844 15.910156 27.988281 26.339844 40.246094l-150.128906 150.085937-43.328126 8.679688zm47.644531 46.246094 25.164063-25.167969 8.679687-43.347656 150.023438-150.039063c12.28125 10.40625 25.804687 19.25 40.257812 26.335938 14.175781 7.589844 27.199219 17.15625 38.675781 28.421875 21.453126 20.410156 37.636719 45.722656 47.15625 73.761719 2.492188 8.625 4.339844 17.199218 6.164063 25.503906 1.621094 7.410156 3.226563 14.8125 5.273437 22.390625 5.417969 18.316406 14.4375 35.363281 26.539063 50.140625 7.363281 9.46875 15.230469 18.53125 23.570313 27.152344zm0 0" data-original="#000000" class="active-path" data-old_color="#000000" fill="#7C7772"/></g> </svg>
