<?xml version="1.0"?>
<svg xmlns="http://www.w3.org/2000/svg" height="512px" viewBox="-69 0 511 511.98716" width="512px"><g transform="matrix(-1 0 0 1 442 0)"><path d="m98.589844 331.886719c.355468-.019531.710937-.019531 1.070312 0 .347656-.097657.699219-.171875 1.058594-.21875 11.285156-.496094 22.351562-3.296875 32.511719-8.230469 4.519531-2.257812 10.011719-.421875 12.269531 4.097656 2.257812 4.519532.421875 10.011719-4.09375 12.269532-9.464844 4.617187-19.601562 7.703124-30.035156 9.140624 3.246094 23.351563 7.3125 80.96875-25.105469 109.019532 9.882813 7.890625 25.910156 7.515625 47.660156-1.167969 35.785157-14.308594 57.296875-34.378906 64-59.640625 6.398438-24.199219-1.636719-52.679688-21.996093-78.125-22.019532-27.519531-12.800782-69.277344-3.90625-109.660156 7.023437-31.878906 14.300781-64.859375 3.210937-83.347656-22.929687-38.1875-52.628906-51.050782-107.246094-45.28125-7.015625 5.339843-13.277343 11.605468-18.617187 18.621093l-.914063 1.207031c-13.867187 18.644532-25.863281 34.742188-28.433593 56.046876-.734376 5.886718.214843 11.863281 2.742187 17.234374 1.035156 2.835938 2.132813 5.871094 3.128906 9.472657 2.363281 10.019531.578125 20.574219-4.957031 29.257812-2.496094 4.03125-5.261719 7.890625-8.28125 11.546875-3.941406 5.027344-13.183594 16.8125-12.070312 20.523438.074218.257812 1.097656 1.457031 4.691406 2.652344 11.609375 3.878906 17.890625 8.464843 20.332031 14.886718 1.84375 6.136719.667969 12.78125-3.164063 17.917969-.71875 1.132813-1.332031 2.328125-1.828124 3.574219 3.152343-.054688 6.105468 1.535156 7.789062 4.199218 1.671875 2.640626 1.828125 5.96875.414062 8.757813l-4.855468 9.691406c3.835937 3.492188 5.960937 8.480469 5.824218 13.667969v2.046875c-.679687 4.410156.242188 8.917969 2.597657 12.710937 3.910156 2.796876 8.71875 4.054688 13.503906 3.527344 17.738281-.3125 35.398437-2.460937 52.699219-6.398437zm0 0" data-original="#000000" class="active-path" data-old_color="#000000" fill="#7C7772"/><path d="m274.496094 374.691406c-5.675782-62.5 9.554687-84.800781 25.675781-108.40625 14.363281-19.164062 24.378906-41.230468 29.355469-64.65625 9.382812-42.195312 6.839844-102.921875-28.40625-146.863281-29.15625-36.34375-75.035156-54.765625-136.375-54.765625-74.113282 0-98.585938 16.675781-106.058594 30.675781-4.621094 10.480469-4.117188 22.515625 1.363281 32.574219 66.039063-8.226562 103.03125 7.023438 130.84375 53.367188 14.839844 24.730468 7.140625 59.695312-1.023437 96.703124-7.972656 36.1875-16.21875 73.601563.328125 94.300782 24.011719 30.015625 33.273437 64.347656 25.410156 94.171875-5.660156 21.421875-23.234375 51.308593-74.871094 71.960937-28.34375 11.347656-50.5625 10.800782-66.003906-1.625-16.402344-13.210937-20.609375-36.9375-21.101563-55.414062-12.050781 15.996094-16.402343 36.503906-11.886718 56.015625 6.402344 21.769531 27.183594 35.007812 59.988281 38.292969 53.175781 5.335937 106.777344-11.742188 139.886719-44.519532 24.507812-23.910156 36.636718-57.777344 32.875-91.8125zm-59.609375-312.226562c-4.203125-2.804688-5.335938-8.480469-2.535157-12.683594 2.804688-4.199219 8.480469-5.332031 12.683594-2.53125.914063.59375 88.4375 60.460938 39.679688 157.980469-1.460938 2.921875-4.371094 4.84375-7.632813 5.042969-3.261719.195312-6.378906-1.359376-8.179687-4.085938-1.804688-2.726562-2.015625-6.207031-.554688-9.132812 41.628906-83.253907-30.371094-132.535157-33.460937-134.589844zm0 0" data-original="#000000" class="active-path" data-old_color="#000000" fill="#7C7772"/><path d="m361.125 380.34375c-25.515625-35.65625-33.753906-74.277344-37.429688-116.398438-2.835937 4.488282-5.679687 8.65625-8.421874 12.679688-15.449219 22.628906-27.65625 40.496094-22.5625 96.457031 4.308593 39.503907-9.832032 78.785157-38.328126 106.480469-10.9375 10.605469-23.320312 19.609375-36.78125 26.742188 21.617188 4.269531 43.679688 5.871093 65.691407 4.761718 35.757812-4.054687 66.882812-26.308594 82.285156-58.832031 12.066406-22.914063 10.351563-50.644531-4.453125-71.890625zm0 0" data-original="#000000" class="active-path" data-old_color="#000000" fill="#7C7772"/></g> </svg>
