<?xml version="1.0"?>
<svg xmlns="http://www.w3.org/2000/svg" xmlns:xlink="http://www.w3.org/1999/xlink" version="1.1" id="Capa_1" x="0px" y="0px" width="512px" height="512px" viewBox="0 0 800 800" style="enable-background:new 0 0 800 800;" xml:space="preserve"><g><g>
	<path d="M307.307,84.779C307.307,37.954,344.445,0,390.272,0c45.825,0,83.028,37.954,83.028,84.779   c0,46.825-37.203,84.737-83.028,84.737C344.445,169.517,307.307,131.604,307.307,84.779z M755,715.393   C755,762.088,596.047,800,400,800c-196.091,0-355-37.912-355-84.607c0-34.312,86.627-63.567,210.002-76.799l-2.514,23.013   c-35.968,8.739-58.372,20.583-58.372,33.659c0,17.309,37.853,32.468,94.73,41.1l29.619-267.071l0.521-10.192   c-1.192,0.176-2.275,0.846-3.469,0.846c-5.979,0-12.067-1.712-17.354-5.313c-38.113-25.896-94.926-108.182-69.813-159.562   c53.822-110.068,130.721-117.203,154.272-116.662c0.088,0,0.217,0,0.325-0.021L359.719,368.92l30.683,31.103l26.802-31.103   l-18.33-190.64c30.876,1.192,94.881,13.36,142.55,88.141c16.381-24.529,36.229-66.084,37.115-79.141   c0.305-4.207,1.518-8.155,3.337-11.821l-24.309-47.778l39.435-19.65l-25.742-50.6l8.429-4.207l25.742,50.664l10.833,21.299   l1.843,3.6l41.796,82.178l-29.119,14.445c-16.6,45.263-52.807,108.333-85.85,115.794c-3.032,0.716-6.064,1.04-9.013,1.04   c-14.756,0-27.888-8.328-34.928-22.706c-13.563-27.719-29.402-45.979-44.83-58.018l16.12,197.104c0,0.325-0.173,0.456-0.173,0.801   l45.521,274.968c50.615-8.85,84.049-22.989,84.049-39.125c0-12.036-19.153-23.099-50.182-31.601l-4.42-24.94   C669.37,652.062,755,681.211,755,715.393z M322.388,395.661l7.237-135.856c-14.93,12.167-31.137,31.232-45.936,61.617   C279.226,333.112,299.961,373.539,322.388,395.661z M441.191,742.698l-45.396-274.315l-30.508,274.9   c10.639,0.392,21.473,0.673,32.588,0.673C412.85,743.956,427.258,743.458,441.191,742.698z" data-original="#000000" class="active-path" data-old_color="#000000" fill="#7C7772"/>
</g></g> </svg>
